<?xml version="1.0" standalone="no"?>
<!DOCTYPE svg PUBLIC "-//W3C//DTD SVG 20010904//EN"
 "http://www.w3.org/TR/2001/REC-SVG-20010904/DTD/svg10.dtd">
<svg version="1.0" xmlns="http://www.w3.org/2000/svg"
 width="860.000000pt" height="880.000000pt" viewBox="0 0 860.000000 880.000000"
 preserveAspectRatio="xMidYMid meet">

<g transform="translate(0.000000,880.000000) scale(0.100000,-0.100000)"
fill="#000000" stroke="none">
<path d="M3906 8380 c-571 -61 -1081 -224 -1571 -500 -503 -285 -960 -702
-1302 -1190 -663 -945 -883 -2150 -598 -3275 340 -1339 1351 -2411 2676 -2833
572 -183 1264 -230 1857 -127 715 124 1345 416 1907 884 134 111 417 400 527
537 365 456 629 978 767 1514 171 669 171 1350 0 2020 -28 107 -108 360 -129
405 -5 11 -19 45 -30 75 -32 83 -58 142 -131 290 -302 616 -780 1160 -1359
1547 -665 444 -1434 676 -2230 672 -130 -1 -282 -9 -384 -19z m-766 -2080 c36
-12 107 -47 159 -78 86 -52 98 -63 128 -119 19 -34 48 -101 64 -148 62 -184
148 -592 149 -706 0 -91 -70 -180 -302 -385 l-107 -95 15 -42 c64 -182 265
-506 451 -728 148 -177 411 -413 635 -572 80 -56 265 -167 278 -167 3 0 46 34
95 76 206 174 315 246 392 260 84 16 578 -139 807 -252 124 -62 150 -86 195
-174 63 -124 84 -207 79 -298 -7 -107 -30 -144 -178 -292 -134 -134 -218 -196
-345 -257 -73 -34 -89 -38 -181 -41 -244 -9 -635 69 -959 192 -115 44 -123 47
-311 142 -563 282 -1054 741 -1392 1303 -199 331 -346 708 -422 1081 -45 222
-54 310 -55 540 0 249 2 259 76 366 77 112 272 286 414 369 99 58 193 66 315
25z"/>
</g>
</svg>
